<?xml version="1.0" encoding="utf-8"?>
<!-- Generator: Adobe Illustrator 24.2.0, SVG Export Plug-In . SVG Version: 6.00 Build 0)  -->
<svg version="1.0" id="katman_1" xmlns="http://www.w3.org/2000/svg" xmlns:xlink="http://www.w3.org/1999/xlink" x="0px" y="0px"
	 viewBox="0 0 1000 1000" style="enable-background:new 0 0 1000 1000;" xml:space="preserve">
<style type="text/css">
	.st0{fill-rule:evenodd;clip-rule:evenodd;fill:#ED3433;}
	.st1{fill-rule:evenodd;clip-rule:evenodd;fill:#F1AB2C;}
</style>
<g>
	<path class="st0" d="M873.1,467.9c0-9.1,7.2-16.5,15.8-16.5c8.9,0,15.8,7.4,15.8,16.5s-6.9,16.5-15.8,16.5
		C880.2,484.6,873.1,477.2,873.1,467.9z M888.8,480.8c6.7,0,11.9-5.7,11.9-12.7c0-6.9-5.5-12.6-11.9-12.6c-6.7,0-12,5.7-12,12.6
		C876.9,475.1,882.1,480.8,888.8,480.8L888.8,480.8z M886.6,475.3h-3.3v-14.6h6c1.2,0,2.6,0,3.6,0.7c1.2,0.7,1.7,2.1,1.7,3.6
		c0,1.7-1,3.1-2.4,3.6l2.6,6.5h-3.6l-2.1-5.7h-2.4C886.6,469.3,886.6,475.3,886.6,475.3z M886.6,467.2h1.9c0.7,0,1.4,0,1.9-0.2
		c0.5-0.2,0.7-1,0.7-1.7c0-0.5-0.2-1.2-0.7-1.4s-1.4-0.2-1.9-0.2h-1.7L886.6,467.2z M647.4,357.9l-4.3,28.2
		c-9.3-5-16.2-6.9-23.6-6.9c-19.6,0-33.4,20.1-33.4,48.4c0,19.6,9.3,31.5,24.6,31.5c6.5,0,13.6-2.1,22.4-6.7l-4.5,29.6
		c-9.8,2.9-16,3.8-23.4,3.8c-28.4,0-46.1-21.5-46.1-55.9c0-46.3,24.3-78.7,59.4-78.7c4.5,0,8.6,0.5,11.9,1.5l11,2.9
		C644.3,356.6,645,356.9,647.4,357.9z M559.8,377.2c-0.7-0.2-1.7-0.2-2.6-0.2c-8.6,0-13.6,4.5-21.7,17.2l2.4-16H514l-16.2,105.3
		h26.5c9.5-64.5,11.9-75.4,24.6-75.4h1.9c2.4-12.7,5.5-22,10-30.6L559.8,377.2z M402,482c-7.2,2.4-12.9,3.6-18.9,3.6
		c-13.4,0-20.8-8.1-20.8-23.2c0-2.9,0.2-6.2,0.7-9.5l1.7-10.3l1.2-8.4l11.5-71.9h26.2l-3.1,15.5h13.6l-3.8,25.5H397l-6.9,43.9
		c-0.2,1.9-0.5,3.3-0.5,4.3c0,5.5,2.9,7.9,9.1,7.9c3.1,0,5.3-0.2,7.2-1L402,482L402,482z M297.9,411.3c0,13.4,6.2,22.4,20.1,29.4
		c10.5,5.3,12.4,6.9,12.4,11.7c0,6.5-4.8,9.5-15,9.5c-7.9,0-15-1.2-23.6-4.3l-3.6,24.4l1.2,0.2l4.8,1c1.7,0.2,3.8,0.7,6.9,0.9
		c6.2,0.5,11.2,1,14.6,1c27.7,0,40.6-11.2,40.6-35.1c0-14.3-5.3-22.9-18.6-29.4c-11-5.2-12.2-6.5-12.2-11.4c0-5.7,4.3-8.6,12.9-8.6
		c5.2,0,12.2,0.7,18.9,1.7l3.8-24.3c-7.7-1.3-15.4-2-23.2-2.1C307.9,375.7,297.7,391.7,297.9,411.3z M857.8,483.2h-25.1l1.2-10.3
		c-7.2,8.1-14.8,11.7-24.3,11.7c-19.4,0-32-17.4-32-43.7c0-35.1,19.6-64.7,43-64.7c10.3,0,17.9,4.5,25.3,14.3l5.7-37h26L857.8,483.2
		L857.8,483.2z M818.9,458.6c12.4,0,21-14.6,21-35.6c0-13.4-5-20.8-14.1-20.8c-11.9,0-20.5,14.8-20.5,35.3
		C805.2,451.4,809.8,458.6,818.9,458.6z M485.6,481.1c-8.8,2.9-18,4.3-27.2,4.3c-29.4,0-44.9-16.2-44.9-47.3
		c0-36.3,19.6-62.8,46.1-62.8c21.7,0,35.6,15,35.6,38.4c0,7.6-1,15.3-3.3,26h-52.5c-0.2,1.7-0.2,2.4-0.2,3.3
		c0,12.4,7.9,18.6,23.2,18.6c9.3,0,17.9-2.1,27.5-6.7C489.7,455,485.6,481.1,485.6,481.1z M470.8,418.2c0.2-2.1,0.2-4.1,0.2-5.3
		c0-8.6-4.5-13.6-12.4-13.6c-8.4,0-14.3,6.7-16.7,18.9H470.8z M191.9,483.2h-26.2l15-99.5l-33.9,99.5h-17.9l-2.1-98.9l-16,98.9H86.1
		l20.5-129.4h37.9l1,80.2l25.8-80.2h41L191.9,483.2z M259.9,436.4c-2.9-0.2-4.1-0.5-6-0.5c-15,0-22.4,5.5-22.4,16
		c0,6.5,3.8,10.7,9.5,10.7C251.6,462.7,259.5,451.9,259.9,436.4z M279.1,483.2h-22l0.5-11c-6.7,8.8-15.5,12.6-27.7,12.6
		c-14.3,0-24.1-11.7-24.1-28.7c0-25.8,17.2-40.6,46.3-40.6c3.1,0,6.9,0.2,10.7,0.7c0.7-3.6,1-5,1-6.9c0-6.9-4.5-9.5-16.9-9.5
		c-7.4,0-16,1.2-22,3.1l-3.3,1.2l-2.4,0.7l3.6-23.6c13.1-4.1,22-5.7,31.5-5.7c22.7,0,34.6,10.7,34.6,30.8c0,5.3-0.5,9.1-2.1,21
		l-5.2,37.5l-1,6.7l-0.7,5.3l-0.5,3.8C279.3,480.5,279.1,483.2,279.1,483.2z M693,436.4c-2.6-0.2-4.1-0.5-6-0.5
		c-15,0-22.7,5.5-22.7,16c0,6.5,3.8,10.7,9.5,10.7C684.7,462.7,692.5,451.9,693,436.4z M712.1,483.2h-22l0.5-11
		c-6.7,8.8-15.5,12.7-27.7,12.7c-14.3,0-24.1-11.7-24.1-28.7c0-25.8,17.2-40.6,46.3-40.6c2.9,0,6.9,0.2,10.7,0.7
		c0.7-3.6,0.9-5,0.9-6.9c0-6.9-4.5-9.5-16.9-9.5c-7.4,0-16,1.2-22,3.1l-3.8,1l-2.4,0.7l3.6-23.6c13.1-4.1,22-5.7,31.5-5.7
		c22.7,0,34.6,10.7,34.6,30.8c0,5.2-0.5,9.1-2.1,21l-5.5,37.2l-0.7,6.7l-0.7,5.3l-0.5,3.6L712.1,483.2L712.1,483.2z M785.9,377.2
		c-0.7-0.2-1.7-0.2-2.6-0.2c-8.6,0-13.6,4.5-21.7,17.2l2.4-16h-23.9l-16.2,105.3h26.5c9.5-64.5,11.9-75.4,24.6-75.4h1.9
		c1.9-10.6,5.2-20.9,10-30.6L785.9,377.2L785.9,377.2z"/>
	<path class="st1" d="M675.2,585.6c0,23.9-7.4,38-19.1,38c-8.6,0.2-13.6-9.3-13.6-23.4c0-16.7,7.6-35.8,19.6-35.8
		C671.8,564.4,675.2,574.6,675.2,585.6z M701.2,585.8c0-26.5-13.1-47.3-37.7-47.3c-28.4,0-46.8,25.1-46.8,62.1
		c0,26.5,11,48.2,37.7,48.2C681.3,648.9,701.2,629.8,701.2,585.8z M625,520.2l-4.1,28.2c-8.8-5-15-6.9-22-6.9
		c-18.4,0-31.3,20.1-31.3,48.5c0,19.6,8.6,31.5,22.9,31.5c6.2,0,12.9-2.1,21-6.7l-4.3,29.6c-9.1,2.9-15,3.8-22,3.8
		c-26.5,0-43.2-21.5-43.2-55.9c0-46.3,22.9-78.8,55.6-78.8c4.3,0,7.9,0.5,11,1.4l10,2.9C622.1,518.8,622.8,519,625,520.2L625,520.2z
		 M461.9,539.3c-0.7-0.2-1.7-0.2-2.6-0.2c-8.1,0-12.7,4.5-20.3,17.2l2.4-16h-22.2l-15.1,105.3h24.6c8.8-64.5,11.2-75.4,22.9-75.4
		c0.7,0,0.7,0,1.9,0.2c2.1-12.6,5.3-22,9.3-30.6L461.9,539.3L461.9,539.3z M783.8,644.6h-23.4l1.2-10.3
		c-6.7,8.1-13.9,11.7-22.9,11.7c-17.9,0-29.8-17.4-29.8-43.7c0-35.1,18.4-64.7,40.1-64.7c9.5,0,16.9,4.5,23.6,14.6l5.5-37h24.3
		L783.8,644.6L783.8,644.6z M747.2,619.8c11.7,0,19.6-14.6,19.6-35.6c0-13.4-4.5-20.5-13.1-20.5c-11.2,0-19.1,14.6-19.1,35.3
		C734.6,612.8,738.9,619.8,747.2,619.8z M230.8,644.1c-8.1,2.9-16.7,4.3-25.3,4.3c-27.5,0-41.8-16.2-41.8-47.3
		c0-36.1,18.4-62.8,43-62.8c20.3,0,33.2,14.8,33.2,38.4c0,7.6-1,15.3-3.1,26h-48.9c-0.2,1.7-0.2,2.4-0.2,3.3
		c0,12.2,7.4,18.4,21.7,18.4c8.8,0,16.7-2.1,25.6-6.7L230.8,644.1z M217,581.3c0-2.1,0.2-4.1,0.2-5.3c0-8.6-4.3-13.6-11.7-13.6
		c-7.9,0-13.4,6.7-15.8,18.9L217,581.3L217,581.3z M524,644.1c-8.1,2.9-16.7,4.3-25.3,4.3c-27.7,0-42-16.2-42-47.3
		c0-36.1,18.4-62.8,43-62.8c20.3,0,33.4,14.8,33.4,38.4c0,7.6-1,15.3-3.1,26H481c-0.2,1.7-0.2,2.4-0.2,3.3
		c0,12.2,7.4,18.4,21.7,18.4c8.8,0,16.7-2.1,25.5-6.7L524,644.1L524,644.1z M510.1,581.3c0.2-2.1,0.2-4.1,0.2-5.3
		c0-8.6-4.3-13.6-11.7-13.6c-7.9,0-13.4,6.7-15.8,18.9L510.1,581.3L510.1,581.3z M867.8,644.1c-8.1,2.8-16.7,4.3-25.3,4.3
		c-27.4,0-42-16.2-42-47.3c0-36.1,18.4-62.8,43.2-62.8c20.3,0,33.2,14.8,33.2,38.4c0,7.6-0.9,15.3-3.1,26h-49
		c-0.2,1.7-0.2,2.4-0.2,3.3c0,12.2,7.4,18.4,21.7,18.4c8.8,0,16.7-2.1,25.6-6.7L867.8,644.1L867.8,644.1z M854,581.3
		c0-2.1,0.2-4.1,0.2-5.3c0-8.6-4.3-13.6-11.7-13.6c-7.9,0-13.4,6.7-15.8,18.9L854,581.3L854,581.3z M157.8,544.1
		c-4.8-3.4-11.5-6-20.5-6c-10,0-17.9,2.1-17.9,12.7c0,18.6,36.3,11.7,36.3,51.8c0,36.5-23.9,46.1-45.6,46.1
		c-9.5,0-20.8-3.1-28.9-6.9l6-26.8c5,4.5,14.8,7.6,23.2,7.6c7.9,0,19.8-2.1,19.8-15.8c0-21.3-36.3-13.4-36.3-50.7
		c0-34.2,21.3-44.2,41.8-44.2c11.5,0,22.4,1.7,28.7,6L157.8,544.1L157.8,544.1z M302.9,644.1c-5,2.4-11.9,4-22,4
		c-21.5,0-34.9-21.5-34.9-47.7c0-34.4,19.3-61.6,47.7-61.6c6.2,0,15.8,2.6,23.2,6.9l-5.5,25.1c-5.3-3.6-10.7-5.7-16.5-5.7
		c-13.1,0-22.7,12.2-22.7,33.6c0,12.4,6.9,22.7,17.7,22.7c6.5,0,11-1.4,16.5-4.5L302.9,644.1L302.9,644.1z M395.1,617.6
		c-1.3,9-2.3,18.1-3.1,27.2h-23.6l1.9-16.9H370c-7.4,11.5-15,19.4-28.7,19.4c-14.8,0-22.9-15.8-22.9-36.1c0-7.2,0.5-11,1.9-22
		l6.7-48.7h26.5l-7.2,49c-0.7,5.2-1.7,10.5-1.7,16c0,6.2,2.9,12.4,10,11.9c10.7,0,17.2-13.1,19.1-28.7l7.4-48.2h25.6L395.1,617.6
		L395.1,617.6z M892.4,643.6h-4.1v-17.5h-5.7v-3.8h15.6v3.8h-5.7L892.4,643.6L892.4,643.6z M918.9,643.6h-3.8v-17.7l-3.6,17.7h-3.8
		l-3.6-17.7v17.7h-3.8v-21.3h6l3.3,16.7h0.2l3.3-16.7h5.7C918.9,622.4,918.9,643.6,918.9,643.6z"/>
</g>
</svg>
