<?xml version="1.0" encoding="utf-8"?>
<!-- Generator: Adobe Illustrator 24.2.0, SVG Export Plug-In . SVG Version: 6.00 Build 0)  -->
<svg version="1.1" id="Layer_1" xmlns="http://www.w3.org/2000/svg" xmlns:xlink="http://www.w3.org/1999/xlink" x="0px" y="0px"
	 viewBox="0 0 1000 1000" style="enable-background:new 0 0 1000 1000;" xml:space="preserve">
<style type="text/css">
	.st0{fill:#0033A1;}
	.st1{fill:#FF9E18;}
</style>
<g>
	<g>
		<path class="st0" d="M419.3,512.3L377,626.4l-4.5-23.2c-10.5-28.4-33.3-58.2-59.9-70.3l38.7,146.5l45.8,0l68-167.1H419.3z"/>
		<polygon class="st0" points="455.6,679.5 482.6,512.1 525.9,512.1 498.8,679.5 		"/>
		<path class="st0" d="M655.6,516.2c-8.5-3.4-22-7-38.7-7c-42.8,0-72.8,22.7-73.1,55.2c-0.3,24.1,21.5,37.5,37.8,45.5
			c16.9,8.2,22.5,13.4,22.5,20.8c-0.2,11.2-13.5,16.3-25.9,16.3c-17.3,0-26.5-2.5-40.7-8.7l-5.6-2.7l-6.1,37.5
			c10.1,4.7,28.8,8.7,48.2,8.9c45.4,0,74.9-22.5,75.3-57.2c0.2-19.1-11.4-33.6-36.3-45.5c-15.1-7.8-24.4-12.9-24.2-20.8
			c0-6.9,7.8-14.4,24.8-14.4c14.2-0.2,24.3,3,32.3,6.4l3.9,1.9L655.6,516.2z"/>
		<path class="st0" d="M766.5,512.3h-33.4c-10.4,0-18.1,3-22.7,13.9l-64.2,153.4h45.4c0,0,7.4-20.6,9.1-25.2c4.9,0,49,0.1,55.3,0.1
			c1.3,5.8,5.3,25.1,5.3,25.1h40.1L766.5,512.3z M713.2,620.2c3.6-9.6,17.2-46.8,17.2-46.8c-0.3,0.5,3.5-9.7,5.7-15.9l2.9,14.4
			c0,0,8.3,40,10,48.3H713.2z"/>
		<path class="st1" d="M337.7,512.2H268l-0.4,2.9c54.2,13.9,90,47.9,104.9,88.2l-15.2-76.9C354.7,515.7,347.1,512.6,337.7,512.2"/>
		<polygon class="st0" points="137.3,471.7 109.7,471.7 77.9,328.4 108.4,323.3 130.1,435.5 185.5,324.8 214.8,324.8 		"/>
		<path class="st0" d="M280.6,424.9h-65.7c-1.8,19.9,7.5,28.6,23.2,28.6c13.1,0,24.7-4.9,37.2-12.7l-0.1,19.9
			c-12.2,7.6-26.3,12.5-42.9,12.5c-28.6,0-47.5-16.3-41.8-53.2c5.1-33.3,28.2-53.4,54.9-53.4c30.7,0,41,23.1,36.5,52.2
			C281.5,420.8,280.8,423.4,280.6,424.9 M241.9,384.2c-10.2,0-19.7,8.1-24.2,24.8h40.7C259.2,393.1,254.2,384.2,241.9,384.2"/>
		<path class="st0" d="M323.5,412.4l-9,58.7H289l15.8-102.4h21.6l0,20.6c8.6-11.9,20.3-21.8,36.4-22.7l0.1,25.2
			C346.8,392.9,332.4,401.3,323.5,412.4"/>
		<path class="st0" d="M362.6,471.1l15.8-102.4h25.4L388,471.1H362.6z M393.9,351.5c-8.5,0-14.4-5.9-13-14.4
			c1.3-8.7,9.1-14.8,17.5-14.8c8.3,0,14.1,6.1,12.8,14.8C409.9,345.6,402.2,351.5,393.9,351.5"/>
		<path class="st0" d="M474.2,340.7c-8.7,0-13.9,3.8-15.4,12.9l-2.3,15.1h19.5l0,20.8h-22.7l-12.6,81.6h-25.2l12.6-81.6h-14.8
			l3.2-20.8h14.8l2.7-17.6c3.5-22.7,19.2-31.2,40.2-31.2c4.5,0,7.8,0.4,10.3,0.8l0.2,20.8C482.2,341.1,478.5,340.7,474.2,340.7"/>
		<path class="st0" d="M474.5,471.1l15.8-102.4h25.4L500,471.1H474.5z M505.9,351.5c-8.5,0-14.4-5.9-13-14.4
			c1.3-8.7,9.1-14.8,17.5-14.8c8.3,0,14.1,6.1,12.8,14.8C521.8,345.6,514.1,351.5,505.9,351.5"/>
		<path class="st0" d="M614.4,424.9h-65.7c-1.8,19.9,7.5,28.6,23.2,28.6c13.1,0,24.7-4.9,37.2-12.7l-0.1,19.9
			c-12.2,7.6-26.3,12.5-42.9,12.5c-28.6,0-47.5-16.3-41.8-53.2c5.1-33.3,28.2-53.4,54.9-53.4c30.7,0,41,23.1,36.5,52.2
			C615.2,420.8,614.6,423.4,614.4,424.9 M575.7,384.2c-10.2,0-19.7,8.1-24.2,24.8h40.7C593,393.1,588,384.2,575.7,384.2"/>
		<path class="st0" d="M689.7,471.1l0.1-14.2c-8.5,8.7-19.7,16.3-33.9,16.3c-21.4,0-36.1-15.9-30.8-50.5
			c5.9-38.2,29.5-55.1,53.2-55.1c9.8,0,17.3,1.7,23.2,3.8l7.6-49.4l26.1-4l-23.6,153.1H689.7z M698.3,392.4
			c-5.9-3-10.6-4.5-19.2-4.5c-13.4,0-24.8,10.8-28.2,33.3c-3.1,19.9,4,29.3,15.2,29.3c9.3,0,17.4-5.5,25.5-14L698.3,392.4z"/>
		<path class="st0" d="M789.5,472.1c-12,0-21.9-1.9-31-5.1l16.7-108.7l19.7-3.1l-7.2,47.1c5.8-5.1,13.8-10.3,23.6-10.3
			c16.4,0,27.4,12.2,23.3,38.2C830.3,458.7,812.7,472.1,789.5,472.1 M803.8,408.9c-6.4,0-12.9,4.3-18.6,10.1l-5.4,35.2
			c3.8,1.4,6.4,2.1,11.9,2.1c12.2,0,20.7-7.4,23.5-25.1C817.4,416.3,812.4,408.9,803.8,408.9"/>
		<path class="st0" d="M880.1,475.3c-9.8,19.1-19.6,25.1-34.5,25.1c-3.4,0-5.2-0.3-6.9-0.8l-0.1-15.9c2.5,0.6,5.1,1.1,8.8,1.1
			c5.6,0,10.5-2.6,13.8-8.2l2.6-5.1L847.3,395l20.5-2.6l9.5,55.3l25.7-54.1h19.1L880.1,475.3z"/>
	</g>
</g>
</svg>
